<svg xmlns="http://www.w3.org/2000/svg" viewBox="0 0 64 64" fill="none">
  <rect width="64" height="64" rx="12" fill="#2d6a4f"/>
  <circle cx="20" cy="20" r="7" fill="#f59e0b"/>
  <g stroke="#f59e0b" stroke-width="2" stroke-linecap="round">
    <line x1="20" y1="6" x2="20" y2="10"/>
    <line x1="20" y1="30" x2="20" y2="34"/>
    <line x1="6" y1="20" x2="10" y2="20"/>
    <line x1="30" y1="20" x2="34" y2="20"/>
    <line x1="10.5" y1="10.5" x2="13" y2="13"/>
    <line x1="27" y1="27" x2="29.5" y2="29.5"/>
    <line x1="29.5" y1="10.5" x2="27" y2="13"/>
    <line x1="13" y1="27" x2="10.5" y2="29.5"/>
  </g>
  <path d="M16 44 L32 30 L48 44 L48 54 L16 54 Z" fill="#d8f3dc"/>
  <rect x="29" y="46" width="6" height="8" fill="#2d6a4f"/>
  <g stroke="#52b788" stroke-width="1" fill="#52b788" opacity="0.85">
    <rect x="34" y="34" width="12" height="3"/>
    <rect x="34" y="38" width="12" height="3"/>
  </g>
</svg>
